<?xml version="1.0" encoding="utf-8"?>
<!-- Generator: Adobe Illustrator 18.1.1, SVG Export Plug-In . SVG Version: 6.00 Build 0)  -->
<!DOCTYPE svg PUBLIC "-//W3C//DTD SVG 1.1//EN" "http://www.w3.org/Graphics/SVG/1.1/DTD/svg11.dtd">
<svg version="1.1" id="Layer_1" xmlns="http://www.w3.org/2000/svg" xmlns:xlink="http://www.w3.org/1999/xlink" x="0px" y="0px"
	 viewBox="0 0 300 170" enable-background="new 0 0 300 170" xml:space="preserve">
<g>
	<path fill="#FFFFFF" d="M154.6,144.4c0,4.2-2.9,7-8.6,8.3c-2,0.6-4,1-6,1.1c-0.6,0.1-1.2,0.2-1.9,0.2c-0.7,0-1.5,0.1-2.4,0.1
		c-2.8,0-5.4-0.1-7.8-0.4c-2.4-0.3-4.7-0.7-6.7-1.4h0.1c-3.5-1.2-7-3-10.4-5.2c-3.4-2.2-6.8-5-10.2-8.4c-2.6-2.6-5.3-5.8-8.3-9.5
		c-3-3.8-6.1-8.1-9.4-13.1l0.1,0.1c-0.4-1-2.2-3.6-5.3-7.7c-1.8-2.3-3.6-3.4-5.6-3.3l-4.9,0.3v15.8c0,4.4,2.5,7.5,7.6,9.2
		c0.5,0.1,0.7,0.4,0.7,0.6c0,0.5-0.4,0.7-1.1,0.7H74c-0.2,0-0.4-0.1-0.6-0.2c-0.2-0.1-0.4-0.2-0.5-0.2c-0.2-0.1-0.4-0.2-0.5-0.2
		c-0.1-0.1-0.2-0.1-0.3-0.2l-0.1-0.1c-1.4-0.6-2.8-1.1-4.3-1.4c-1.5-0.3-3-0.5-4.5-0.5c-3.6,0-7.4,1-11.5,2.9
		c-0.2,0.2-0.5,0.3-0.8,0.3c-0.6,0-0.9-0.3-0.9-0.8c0-0.4,0.3-0.6,0.8-0.8c5.1-2.1,7.7-5.2,7.7-9.3V93.9c0-2.8-0.6-4.7-1.9-5.6
		c-1-0.7-2.9-1-5.9-1H49c-0.3,0-0.6,0.1-0.8,0.1c-0.2,0-0.3,0-0.4,0c-0.4,0-0.6,0-0.6-0.1c0.2-0.1,0.7-0.3,1.4-0.5
		c0.8-0.3,1.6-0.5,2.4-0.7c1.6-0.5,3.2-1.2,4.9-2.1c1.7-0.9,3.4-1.9,5-3c3.6-2.5,6.3-5.1,8.1-7.8c0.7-1.2,1.1-1.9,1.2-1.9
		c0.4,0,0.6,0,0.6,0.1c0,0.1,0,0.2-0.1,0.4c-0.1,0.3-0.2,0.6-0.2,0.8c-0.1,0.3-0.2,0.6-0.2,0.9v-0.1C68.2,79,67.3,84,67.3,88.6v14.8
		c0.5,0,1.1,0.1,1.6,0.1c0.5,0,0.9,0,1.2,0c4.6-0.4,8.3-3.7,11.2-9.7h-0.1c0.3-0.6,0.6-0.9,1-0.9c0.2,0,0.4,0.1,0.5,0.4l-0.1-0.1
		l0.4,1.3c0,0.2,0.1,0.5,0.3,0.8c0.1,0.3,0.3,0.7,0.6,1.2l1.7,3.4c6.4-3.4,9.6-8.9,9.6-16.3c0-7.1-3.8-12.5-11.4-16.2
		c-3.6-1.8-7.8-2.7-12.6-2.7c-6.8,0-14.5,1.8-23,5.3l-12,4.8c-1.9,0.8-3.8,1.5-5.9,2.1c-2.1,0.6-4.2,1-6.5,1.4
		c-1.2,0.2-2.4,0.4-3.4,0.5c-1,0.1-1.9,0.2-2.5,0.2c-1,0-2.1,0-3.2-0.1c-1.1-0.1-2.2-0.2-3.2-0.4c-3.4-0.7-6-1.8-7.8-3.3
		C1.9,73.7,1,71.8,1,69.4c0-1.4,0.4-2.8,1.2-4.1c2.6-4,6.5-6.1,11.8-6.1c3.2-0.1,5.9,0.5,8.2,1.7c2.9,1.5,4.3,3.6,4.3,6.4
		c0,1-0.3,1.8-0.8,2.6v-0.1l-1.4,1.4c-0.4,0.4-1,0.7-1.8,1.1c-0.8,0.4-1.8,0.7-2.9,1c-2.2,0.5-4,0.7-5.4,0.6c-1.5-0.1-3-0.6-4.6-1.3
		c-1.9-0.9-2.9-1.9-2.9-2.9c0.1-2.1,2.6-3.1,7.3-3.1c1.3,0,3.2,0.5,5.6,1.6l3.3,1.5c0.4,0.1,0.7,0.1,0.9,0c0.2-0.1,0.4-0.2,0.5-0.4
		h-0.1c0.7-0.5,1-1.2,0.9-2.3c-0.1-1.7-1.6-3-4.5-4.1c-2.2-0.7-4.3-1.1-6.1-1.1c-2.6,0-5,0.5-7.3,1.6c-2.8,1.3-4.5,3-5.1,5.1v1.4
		c0.5,2.6,1.8,4.3,4.1,5.3c1.4,0.6,2.8,1,4.2,1.4c1.4,0.4,2.8,0.6,4.2,0.7c3,0.2,6.7-0.3,11.2-1.6c4.5-1.3,9.5-3.2,15.1-5.9
		c2.3-1.1,4.7-2.2,7.1-3.4c2.4-1.2,4.7-2.3,7-3.4c2.7-1.3,5.4-2.3,8.1-3.1c2.7-0.8,5.2-1.4,7.5-1.7c0.9-0.1,1.8-0.2,2.7-0.2
		c0.9,0,1.9-0.1,2.7-0.1s1.7,0,2.6,0.1c0.9,0,1.8,0.1,2.8,0.2c2,0.2,5,0.8,8.8,1.9h-0.1c3.6,1.5,6.6,3.4,9,5.7
		c2.4,2.3,4.3,5,5.5,8.1c0.9,2.3,1.4,4.4,1.4,6.4c0,1.7-0.2,3.4-0.7,5.1c-0.7,2.8-2,5.5-4,7.8c-2,2.4-4.6,4.5-7.8,6.4
		c-1,0.5-2.1,1-3.2,1.6c-1.1,0.5-2.3,1-3.5,1.4c4.3,8.5,8.7,16,13,22.4c4.3,6.5,8.8,12,13.4,16.6c0.7,0.6,1.5,1.3,2.4,2
		c0.9,0.7,1.7,1.4,2.4,2c1.3,1.1,2.9,2.1,4.7,3c1.9,0.9,4,1.7,6.2,2.3c1.5,0.4,3,0.8,4.6,1c1.5,0.2,3,0.4,4.3,0.4
		c1.7,0,3.3-0.1,4.8-0.3c1.5-0.2,3-0.6,4.5-1h-0.1c4.4-1.3,6.5-3.3,6.4-6.1c-0.1-0.8-0.2-1.2-0.2-1.4v0.1c-0.7-2.2-2.4-4-5.2-5.3
		c-2.1-1-4.6-1.5-7.3-1.5c-1.9,0-4.2,0.5-6.8,1.5c-2.4,1.3-3.6,2.5-3.6,3.7c0,1.9,0.7,2.8,2.1,2.6l3.4-1.6c2.3-1,4.2-1.5,5.6-1.5
		c4.7,0,7.2,1,7.3,3.1c0,1.1-0.9,2.1-2.8,2.9c-1.6,0.7-3.1,1.1-4.7,1.2c-1.3,0.1-3.1-0.1-5.3-0.7c-2.3-0.4-4-1.3-5-2.6
		c-0.2-0.2-0.4-0.4-0.5-0.4c-0.1,0-0.3-0.2-0.5-0.4v0.1c-0.5-0.8-0.8-1.7-0.8-2.6c0-2.8,1.4-4.9,4.3-6.4c1.1-0.6,2.4-1,3.8-1.4
		c1.4-0.3,2.9-0.5,4.5-0.4c5.3,0.1,9.2,2.2,11.8,6.2C154.2,141.6,154.6,143,154.6,144.4z"/>
	<path fill="#FFFFFF" d="M134,125.8c0,0.5-0.2,0.7-0.6,0.7c-0.3,0-0.6,0-1-0.1c-0.4-0.1-0.8-0.2-1.3-0.3c-0.5-0.1-0.9-0.2-1.3-0.3
		c-0.4-0.1-0.7-0.1-1-0.1c-0.4,0-0.9,0.1-1.7,0.4c-0.7,0.2-1.3,0.4-1.6,0.4c-0.6,0-1-0.7-1.3-2.1l-1.2,0.9c-2.1,1.1-3.6,1.6-4.5,1.5
		c-0.3,0-0.6,0.1-0.9,0.1c-0.3,0-0.5,0-0.8,0c-3.8,0-6.4-1.4-8.1-4.3c-0.6-1-0.9-2.4-0.9-4c0-0.9,0.1-1.7,0.4-2.2
		c0.9-2.4,3.3-4.2,7.5-5.5c0.2-0.1,0.6-0.2,1.1-0.3c0.5-0.1,1-0.3,1.7-0.5c3.5-1.1,5.3-2,5.3-2.8c0-1.7,0-2.7-0.1-2.8
		c-0.3-1.6-2.1-2.4-5.6-2.4c-1.5,0-2.3,0.5-2.3,1.5l0.8,1.1c0.6,0.8,0.9,1.4,0.9,1.6c0,0.8-0.4,1.4-1.2,1.9
		c-0.8,0.5-1.6,0.7-2.5,0.7c-1,0-1.9-0.3-2.9-0.8c-1-0.6-1.6-1.4-1.6-2.4c0-1.7,1-3,3-4c1.6-0.8,3.3-1.3,5.3-1.4
		c1.2,0,2.4,0,3.6,0.2c1.2,0.2,2.3,0.4,3.4,0.7c0.7,0.2,1.5,0.6,2.5,1.1c1,0.5,2.2,1.2,3.5,2c1.3,0.7,2,1.2,2.1,1.4
		c0,0.1-0.2,0.4-0.7,0.8c-0.9,0.6-1.4,1.8-1.4,3.7v10c0,2.7,0.9,4.3,2.7,5C133.8,125.2,134,125.4,134,125.8z M123.9,110.4
		c-0.1,0.1-2,0.9-5.5,2.1c-3,1.1-4.5,3.4-4.5,7.1c0,0.7,0.2,1.4,0.6,2.3c0.8,1.6,1.9,2.4,3.6,2.4c2.7,0,4.6-1.1,5.8-3.4L123.9,110.4
		z"/>
	<path fill="#FFFFFF" d="M164.2,110.8c0,1.7-0.7,4.3-2.2,7.7c-1.4,3.4-2.1,6-2.1,7.7s0.6,3.6,1.9,5.6l1.9,3c0,0.3-0.2,0.5-0.6,0.5
		c-0.1,0-0.3,0-0.6-0.1c-2.1-0.8-3.9-2.3-5.3-4.7c-1.3-2.2-1.9-4.5-1.9-6.9c0-1.5,0.3-3.6,0.9-6.2c0.3-1.4,0.6-2.6,0.7-3.6
		c0.2-1,0.2-1.9,0.2-2.6c0-1.1-0.2-2.5-0.6-4c-0.8-2.8-2.5-4.2-5.2-4.2c-1.2,0-2.2,0.4-3.1,1.1c-0.9,0.8-1.3,1.7-1.3,2.9v13.4
		c0,2.8,0.9,4.5,2.7,5.3c0.3,0.1,0.5,0.3,0.5,0.6c0,0.4-0.2,0.6-0.7,0.6c-0.6,0-1.6-0.2-2.9-0.7c-1.3-0.5-2.3-0.8-2.9-0.8
		c-0.6,0-1.7,0.3-3.1,0.8c-1.4,0.5-2.4,0.8-3,0.8c-0.4,0-0.6-0.2-0.6-0.6c0-0.2,0.2-0.4,0.5-0.6c1.8-0.8,2.7-2.6,2.7-5.4v-13.2
		c0-2.4-0.6-3.9-1.7-4.6c-1-0.5-1.4-0.8-1.5-0.9c0-0.5,0.2-0.8,0.6-0.8c0.6,0,1.6,0.2,2.9,0.6c1.4,0.4,2.4,0.6,2.9,0.6
		c1.2,0,2.8-0.2,4.9-0.7c1.1-0.2,2.1-0.4,2.9-0.6s1.5-0.2,2.1-0.1c3,0,5.6,1,7.7,2.9C163.2,105.3,164.2,107.8,164.2,110.8z"/>
	<path fill="#FFFFFF" d="M195,126.2c0,0.4-0.2,0.6-0.7,0.6c-0.1,0-0.4-0.1-0.7-0.3c-1.7-0.9-3.4-1.3-5.3-1.3c-2,0-3.8,0.3-5.3,0.9
		c-0.7,0.2-1.7,0.4-2.9,0.4c-3.6,0-6.4-1.4-8.6-4.1c-2.1-2.5-3.1-5.6-3.1-9.2c0-3.6,1-6.7,3.1-9.2c2.2-2.7,5.1-4,8.6-4.1
		c1.9,0,3.6,0.4,5.1,1.2v-3.3c0-0.4,0-0.9-0.1-1.4c-0.1-0.5-0.3-1-0.5-1.5c-0.2-0.5-0.5-0.9-0.9-1.3c-0.4-0.4-0.7-0.6-1.2-0.8
		c-0.4-0.1-0.6-0.3-0.6-0.6c0-0.6,0.4-0.8,1.1-0.6c1.9,0.7,3.7,1,5.6,0.9c0.3,0,0.8-0.1,1.4-0.3c0.6-0.2,1-0.3,1.3-0.3
		c0.4,0,0.6,0.3,0.6,1v27.4c0,3,0.9,4.8,2.8,5.4C194.9,125.7,195,125.9,195,126.2z M185,119.9v-14.6c0-1.1-0.6-2-1.7-2.6
		c-1-0.5-2.1-0.8-3.3-0.7c-1.8,0-3.2,1.4-4.1,4.1c-0.7,2-1,4.1-1,6.3v1.1c0,2.3,0.4,4.4,1.1,6.4c0.9,2.7,2.3,4.1,4.3,4.1
		C183.5,124,185,122.6,185,119.9z"/>
	<path fill="#FFFFFF" d="M221.7,113.2c0,3.7-1.1,6.8-3.3,9.3c-2.3,2.6-5.3,3.9-9,3.9c-3.7,0-6.7-1.3-9-3.8c-2.3-2.6-3.4-5.7-3.4-9.5
		c0-3.8,1.1-6.9,3.4-9.4c2.3-2.6,5.3-3.8,9-3.8s6.7,1.3,9,3.8C220.5,106.3,221.7,109.5,221.7,113.2z M215,113.5v-1.1
		c0-6.9-1.9-10.4-5.8-10.4c-3.9,0-5.8,3.5-5.8,10.4v1.1c0,7,1.9,10.5,5.8,10.5C213,124,215,120.5,215,113.5z"/>
	<path fill="#FFFFFF" d="M248.5,113.2c0,3.7-1.1,6.8-3.3,9.3c-2.3,2.6-5.3,3.9-9,3.9c-3.7,0-6.7-1.3-9-3.8c-2.3-2.6-3.4-5.7-3.4-9.5
		c0-3.8,1.1-6.9,3.4-9.4c2.3-2.6,5.3-3.8,9-3.8s6.7,1.3,9,3.8C247.4,106.3,248.5,109.5,248.5,113.2z M241.8,113.5v-1.1
		c0-6.9-1.9-10.4-5.8-10.4c-3.9,0-5.8,3.5-5.8,10.4v1.1c0,7,1.9,10.5,5.8,10.5C239.9,124,241.8,120.5,241.8,113.5z"/>
	<path fill="#FFFFFF" d="M294.2,111c0,1.7-0.8,4.2-2.3,7.6c-1.5,3.4-2.3,6-2.3,7.6c0,1.7,0.6,3.6,1.9,5.6l1.9,3
		c0,0.3-0.2,0.5-0.6,0.5c-1.1,0-2.8-1.3-5.2-4c-1.7-1.9-2.6-4.5-2.6-7.8c0-1.5,0.3-3.6,0.9-6.2c0.3-1.4,0.6-2.6,0.7-3.6
		c0.2-1,0.2-1.9,0.2-2.6c0-1.1-0.2-2.5-0.6-4c-0.8-2.8-2.5-4.2-5.2-4.2c-1.2,0-2.2,0.4-3.1,1.1c-0.9,0.8-1.3,1.7-1.3,2.9v13.4
		c0,2.8,0.9,4.5,2.7,5.3c0.3,0.1,0.5,0.3,0.5,0.6c0,0.4-0.2,0.6-0.7,0.6c-0.6,0-1.6-0.2-2.8-0.7c-1.3-0.5-2.3-0.8-2.9-0.8
		c-0.6,0-1.7,0.3-3.1,0.8c-1.4,0.5-2.4,0.8-3,0.8c-0.4,0-0.6-0.2-0.6-0.6c0-0.2,0.2-0.4,0.5-0.6c1.8-0.8,2.7-2.6,2.7-5.4v-11.8
		c0-3.8-1.6-5.7-4.9-5.7c-1.3,0-2.4,0.4-3.3,1.1c-0.9,0.7-1.4,1.7-1.4,3v13.4c0,2.8,0.9,4.5,2.7,5.3c0.3,0.1,0.5,0.3,0.5,0.6
		c0,0.4-0.2,0.6-0.7,0.6c-0.6,0-1.6-0.2-2.9-0.7c-1.3-0.5-2.3-0.8-2.8-0.8c-0.6,0-1.7,0.3-3.1,0.8c-1.4,0.5-2.4,0.8-3,0.8
		c-0.4,0-0.6-0.2-0.6-0.6c0-0.2,0.2-0.4,0.5-0.6c1.8-0.8,2.7-2.6,2.7-5.4v-13.2c0-2.5-0.6-4-1.8-4.6c-0.7-0.4-1.2-0.7-1.4-0.9
		c0-0.5,0.2-0.8,0.6-0.8c0.6,0,1.6,0.2,3,0.7c1.4,0.5,2.5,0.7,3.3,0.7c1.1,0,2.5-0.2,4.3-0.7c2-0.5,3.4-0.8,4.3-0.8
		c0.8,0,2,0.2,3.7,0.6c1.6,0.4,2.9,0.6,3.7,0.6c0.5,0,2.3-0.4,5.3-1.1c1.2-0.3,2.7-0.4,4.5-0.4c3.1,0,5.7,1,7.8,2.9
		C293.1,105.4,294.2,107.9,294.2,111z"/>
</g>
<g>
	<path fill="#FFFFFF" d="M202.3,6C180.7-7.4,149.8,9.3,145,18.7c-4.8,9.4-5.6,20.9-9.1,20.6c-2.2,0.7,4,9.1,0,13.7
		c-2.9,2.6-3.8,10.7-1.4,12.9c2.5,2.1,7.5,1.1,5.5,4.4c-2.1,3.3-2.3,6.9-2.3,6.9s24.2,5.9,34.8,1.7c-3.1-3.5,1.9-6.1,1.9-6.1
		s10.2,9,21.2-5.3c5.3-6,18.2,3.4,18.2,3.4S241.8,25.4,202.3,6z M136,55.2c0.1-1.7,3.1-1.6,2.6-4.1c-0.6-2.5-2.2-6.8-0.7-11.5
		c6.9-2.4,10.5,0.4,11.3,4c1.1,5-6.1,12.9-6.1,12.9C137.5,59.6,135.9,56.9,136,55.2z M154.8,67.2c-0.2,5.3-9.1,4.2-11.7,2.1
		c-1.8-2.9,4.1-6.4,2.2-14.1C147.3,53.3,155,61.8,154.8,67.2z M180.8,49.9c0.6,8.4-7.4,11.8-10.3,11.7c-2.9-0.1-13.3-4.6-13.3-8.2
		c0-3.6,2.3-7.3,2.3-7.3s1.9-4.6,4.5-5C166.6,40.7,180.2,41.5,180.8,49.9z"/>
	<path fill="#FFFFFF" d="M136.7,78.6c0,0-1.9,5.4-0.8,5.9c1.1,0.5,2.1,0.7,2.1,0.7l1.8-5.9L136.7,78.6z"/>
	<path fill="#FFFFFF" d="M141.6,79.7c0,0-2.3,5.8-1,6.4c1.3,0.5,2.4,0.4,2.4,0.4l2.2-6.1L141.6,79.7z"/>
	<path fill="#FFFFFF" d="M146.7,80.4c0,0-2.1,6-1.6,6.1c0.5,0.1,2.3,0.6,3.5,0.4c0.6-0.7,1.9-5.9,1.9-5.9L146.7,80.4z"/>
	<path fill="#FFFFFF" d="M152.2,81.1c0,0-2,6.1-1.5,6.2c0.5,0.1,2.3,0.6,3.4,0.4c0.6-0.7,1.8-6.3,1.8-6.3L152.2,81.1z"/>
	<path fill="#FFFFFF" d="M157.8,81.3l-1.2,5.7c0,0,1.6,0.9,3.8,0c1-0.9,1.4-5.2,1.4-5.2L157.8,81.3z"/>
	<path fill="#FFFFFF" d="M163.5,81.6l-1,5.6c0,0,1.8,0.9,3.7,0.1c0.9-0.9,1.1-5.8,1.1-5.8L163.5,81.6z"/>
	<path fill="#FFFFFF" d="M169,81.6l-1,5.3c0,0,1.7,0.9,3.5,0c0.8-0.9,1-5.5,1-5.5L169,81.6z"/>
</g>
</svg>
